<mxfile host="app.diagrams.net" modified="2023-10-11T03:39:53.278Z" agent="Mozilla/5.0 (Windows NT 10.0; Win64; x64) AppleWebKit/537.36 (KHTML, like Gecko) Chrome/116.0.0.0 Safari/537.36" etag="DMi4qMN0wW98IxZ5iZ5H" version="21.8.2" type="github">
  <diagram name="第 1 页" id="R1pX3bboMI2ceJxk94YC">
    <mxGraphModel dx="791" dy="415" grid="1" gridSize="10" guides="1" tooltips="1" connect="1" arrows="1" fold="1" page="1" pageScale="1" pageWidth="827" pageHeight="1169" math="0" shadow="0">
      <root>
        <mxCell id="0" />
        <mxCell id="1" parent="0" />
        <mxCell id="YkHYq3g6I9ERcJjr3e46-13" value="海外资源写入流程" style="swimlane;childLayout=stackLayout;resizeParent=1;resizeParentMax=0;horizontal=1;startSize=20;horizontalStack=0;html=1;" vertex="1" parent="1">
          <mxGeometry x="90" y="740" width="560" height="650" as="geometry" />
        </mxCell>
        <mxCell id="YkHYq3g6I9ERcJjr3e46-14" value="运营后台" style="swimlane;startSize=20;horizontal=0;html=1;" vertex="1" parent="YkHYq3g6I9ERcJjr3e46-13">
          <mxGeometry y="20" width="560" height="70" as="geometry" />
        </mxCell>
        <mxCell id="YkHYq3g6I9ERcJjr3e46-15" value="数据库" style="swimlane;startSize=20;horizontal=0;html=1;" vertex="1" parent="YkHYq3g6I9ERcJjr3e46-13">
          <mxGeometry y="90" width="560" height="120" as="geometry" />
        </mxCell>
        <mxCell id="YkHYq3g6I9ERcJjr3e46-22" value="overseas_app_config" style="whiteSpace=wrap;html=1;" vertex="1" parent="YkHYq3g6I9ERcJjr3e46-15">
          <mxGeometry x="100" y="30" width="120" height="60" as="geometry" />
        </mxCell>
        <mxCell id="YkHYq3g6I9ERcJjr3e46-23" value="&lt;div style=&quot;line-height: 100%;&quot; data-language=&quot;plain&quot; class=&quot;ql-code-block ql-long-284244 ql-direction-ltr ql-authorBlock-284244&quot;&gt;overseas_app_label&lt;/div&gt;" style="whiteSpace=wrap;html=1;" vertex="1" parent="YkHYq3g6I9ERcJjr3e46-15">
          <mxGeometry x="250" y="30" width="120" height="60" as="geometry" />
        </mxCell>
        <mxCell id="YkHYq3g6I9ERcJjr3e46-16" value="海外资源接口" style="swimlane;startSize=20;horizontal=0;html=1;" vertex="1" parent="YkHYq3g6I9ERcJjr3e46-13">
          <mxGeometry y="210" width="560" height="120" as="geometry" />
        </mxCell>
        <mxCell id="YkHYq3g6I9ERcJjr3e46-45" value="intl.api.oppo." style="whiteSpace=wrap;html=1;" vertex="1" parent="YkHYq3g6I9ERcJjr3e46-16">
          <mxGeometry x="370" y="30" width="120" height="60" as="geometry" />
        </mxCell>
        <mxCell id="YkHYq3g6I9ERcJjr3e46-50" value="加载" style="text;html=1;align=center;verticalAlign=middle;resizable=0;points=[];autosize=1;strokeColor=none;fillColor=none;" vertex="1" parent="YkHYq3g6I9ERcJjr3e46-16">
          <mxGeometry x="210" y="30" width="50" height="30" as="geometry" />
        </mxCell>
        <mxCell id="YkHYq3g6I9ERcJjr3e46-18" value="resource-admin" style="swimlane;startSize=20;horizontal=0;html=1;" vertex="1" parent="YkHYq3g6I9ERcJjr3e46-13">
          <mxGeometry y="330" width="560" height="120" as="geometry" />
        </mxCell>
        <mxCell id="YkHYq3g6I9ERcJjr3e46-34" value="定时任务" style="ellipse;whiteSpace=wrap;html=1;aspect=fixed;" vertex="1" parent="YkHYq3g6I9ERcJjr3e46-18">
          <mxGeometry x="40" y="30" width="60" height="60" as="geometry" />
        </mxCell>
        <mxCell id="YkHYq3g6I9ERcJjr3e46-47" value="查询数据" style="whiteSpace=wrap;html=1;" vertex="1" parent="YkHYq3g6I9ERcJjr3e46-18">
          <mxGeometry x="140" y="30" width="190" height="60" as="geometry" />
        </mxCell>
        <mxCell id="YkHYq3g6I9ERcJjr3e46-51" value="调用接口" style="whiteSpace=wrap;html=1;" vertex="1" parent="YkHYq3g6I9ERcJjr3e46-18">
          <mxGeometry x="380" y="30" width="120" height="60" as="geometry" />
        </mxCell>
        <mxCell id="YkHYq3g6I9ERcJjr3e46-35" value="分布式缓存" style="swimlane;startSize=20;horizontal=0;html=1;" vertex="1" parent="YkHYq3g6I9ERcJjr3e46-13">
          <mxGeometry y="450" width="560" height="100" as="geometry" />
        </mxCell>
        <mxCell id="YkHYq3g6I9ERcJjr3e46-38" value="数据落库" style="whiteSpace=wrap;html=1;" vertex="1" parent="YkHYq3g6I9ERcJjr3e46-35">
          <mxGeometry x="80" y="20" width="120" height="60" as="geometry" />
        </mxCell>
        <mxCell id="YkHYq3g6I9ERcJjr3e46-40" value="overseas_app_config" style="whiteSpace=wrap;html=1;" vertex="1" parent="YkHYq3g6I9ERcJjr3e46-35">
          <mxGeometry x="280" y="20" width="120" height="60" as="geometry" />
        </mxCell>
        <mxCell id="YkHYq3g6I9ERcJjr3e46-36" value="resource-rpc" style="swimlane;startSize=20;horizontal=0;html=1;" vertex="1" parent="YkHYq3g6I9ERcJjr3e46-13">
          <mxGeometry y="550" width="560" height="100" as="geometry" />
        </mxCell>
        <mxCell id="YkHYq3g6I9ERcJjr3e46-41" value="定时任务" style="ellipse;whiteSpace=wrap;html=1;aspect=fixed;" vertex="1" parent="YkHYq3g6I9ERcJjr3e46-36">
          <mxGeometry x="40" y="20" width="60" height="60" as="geometry" />
        </mxCell>
        <mxCell id="YkHYq3g6I9ERcJjr3e46-48" style="edgeStyle=orthogonalEdgeStyle;rounded=0;orthogonalLoop=1;jettySize=auto;html=1;entryX=0.5;entryY=0;entryDx=0;entryDy=0;" edge="1" parent="YkHYq3g6I9ERcJjr3e46-13" source="YkHYq3g6I9ERcJjr3e46-22" target="YkHYq3g6I9ERcJjr3e46-47">
          <mxGeometry relative="1" as="geometry" />
        </mxCell>
        <mxCell id="YkHYq3g6I9ERcJjr3e46-49" style="edgeStyle=orthogonalEdgeStyle;rounded=0;orthogonalLoop=1;jettySize=auto;html=1;entryX=0.5;entryY=0;entryDx=0;entryDy=0;" edge="1" parent="YkHYq3g6I9ERcJjr3e46-13" source="YkHYq3g6I9ERcJjr3e46-23" target="YkHYq3g6I9ERcJjr3e46-47">
          <mxGeometry relative="1" as="geometry" />
        </mxCell>
        <mxCell id="YkHYq3g6I9ERcJjr3e46-24" value="海外资源读取流程" style="swimlane;childLayout=stackLayout;resizeParent=1;resizeParentMax=0;horizontal=1;startSize=20;horizontalStack=0;html=1;" vertex="1" parent="1">
          <mxGeometry x="770" y="740" width="480" height="690" as="geometry" />
        </mxCell>
        <mxCell id="YkHYq3g6I9ERcJjr3e46-25" value="运营后台" style="swimlane;startSize=20;horizontal=0;html=1;" vertex="1" parent="YkHYq3g6I9ERcJjr3e46-24">
          <mxGeometry y="20" width="480" height="70" as="geometry" />
        </mxCell>
        <mxCell id="YkHYq3g6I9ERcJjr3e46-26" value="数据库" style="swimlane;startSize=20;horizontal=0;html=1;" vertex="1" parent="YkHYq3g6I9ERcJjr3e46-24">
          <mxGeometry y="90" width="480" height="120" as="geometry" />
        </mxCell>
        <mxCell id="YkHYq3g6I9ERcJjr3e46-27" value="" style="whiteSpace=wrap;html=1;" vertex="1" parent="YkHYq3g6I9ERcJjr3e46-26">
          <mxGeometry x="50" y="30" width="120" height="60" as="geometry" />
        </mxCell>
        <mxCell id="YkHYq3g6I9ERcJjr3e46-28" value="" style="whiteSpace=wrap;html=1;" vertex="1" parent="YkHYq3g6I9ERcJjr3e46-26">
          <mxGeometry x="300" y="30" width="120" height="60" as="geometry" />
        </mxCell>
        <mxCell id="YkHYq3g6I9ERcJjr3e46-29" value="resource-admin" style="swimlane;startSize=20;horizontal=0;html=1;" vertex="1" parent="YkHYq3g6I9ERcJjr3e46-24">
          <mxGeometry y="210" width="480" height="120" as="geometry" />
        </mxCell>
        <mxCell id="YkHYq3g6I9ERcJjr3e46-30" value="resource-rpc" style="swimlane;startSize=20;horizontal=0;html=1;" vertex="1" parent="YkHYq3g6I9ERcJjr3e46-24">
          <mxGeometry y="330" width="480" height="120" as="geometry" />
        </mxCell>
        <mxCell id="YkHYq3g6I9ERcJjr3e46-31" value="H5服务端" style="swimlane;startSize=20;horizontal=0;html=1;" vertex="1" parent="YkHYq3g6I9ERcJjr3e46-24">
          <mxGeometry y="450" width="480" height="120" as="geometry" />
        </mxCell>
        <mxCell id="YkHYq3g6I9ERcJjr3e46-32" value="H5服务端" style="swimlane;startSize=20;horizontal=0;html=1;" vertex="1" parent="YkHYq3g6I9ERcJjr3e46-24">
          <mxGeometry y="570" width="480" height="120" as="geometry" />
        </mxCell>
      </root>
    </mxGraphModel>
  </diagram>
</mxfile>
